<?xml version="1.0" standalone="no"?><!DOCTYPE svg PUBLIC "-//W3C//DTD SVG 1.1//EN" "http://www.w3.org/Graphics/SVG/1.1/DTD/svg11.dtd"><svg t="1692180024169" class="icon" viewBox="0 0 1024 1024" version="1.1" xmlns="http://www.w3.org/2000/svg" p-id="4040" width="128" height="128" xmlns:xlink="http://www.w3.org/1999/xlink"><path d="M405.333333 544l-44.8-44.8 83.2-83.2c4.266667-4.266667 10.666667-4.266667 14.933334 0l29.866666 29.866667c4.266667 4.266667 4.266667 10.666667 0 14.933333L405.333333 544z" fill="#297AFF" p-id="4041"></path><path d="M608 567.466667l-29.866667-29.866667c-4.266667-4.266667-10.666667-4.266667-14.933333 0l-66.133333 66.133333-174.933334-174.933333-104.533333 104.533333c-64 64-72.533333 164.266667-27.733333 238.933334l-51.2 51.2c-8.533333 8.533333-8.533333 21.333333 0 29.866666l29.866666 29.866667c8.533333 8.533333 21.333333 8.533333 29.866667 0l51.2-51.2c74.666667 46.933333 172.8 38.4 238.933333-27.733333l104.533334-104.533334-51.2-51.2 66.133333-66.133333c4.266667-4.266667 4.266667-10.666667 0-14.933333z m-179.2 209.066666c-42.666667 42.666667-108.8 42.666667-151.466667 0L247.466667 746.666667c-42.666667-42.666667-42.666667-108.8 0-151.466667l74.666666-74.666667 181.333334 181.333334-74.666667 74.666666zM885.333333 168.533333l-29.866666-29.866666c-8.533333-8.533333-21.333333-8.533333-29.866667 0l-51.2 51.2c-74.666667-46.933333-172.8-38.4-238.933333 27.733333l-104.533334 104.533333 270.933334 270.933334 104.533333-104.533334c64-64 72.533333-164.266667 27.733333-238.933333l51.2-51.2c8.533333-6.4 8.533333-21.333333 0-29.866667z m-108.8 260.266667l-74.666666 74.666667-181.333334-181.333334 74.666667-74.666666c42.666667-42.666667 108.8-42.666667 151.466667 0l29.866666 29.866666c42.666667 42.666667 42.666667 108.8 0 151.466667z" fill="#297AFF" p-id="4042"></path></svg>